<svg width="396" height="80" viewBox="0 0 396 80" fill="none" xmlns="http://www.w3.org/2000/svg">
<g filter="url(#filter0_d_116_57)">
<rect x="4" y="3" width="72" height="72" rx="16" fill="#2E7D32"/>
<circle cx="40" cy="39" r="14" fill="white"/>
</g>
<rect width="1" height="52" transform="translate(100 13)" fill="#E0E0E0"/>
<path d="M141.479 19.348C141.376 18.3168 140.938 17.5156 140.162 16.9446C139.386 16.3736 138.334 16.0881 137.004 16.0881C136.101 16.0881 135.338 16.2159 134.716 16.4716C134.094 16.7188 133.616 17.0639 133.284 17.5071C132.96 17.9503 132.798 18.4531 132.798 19.0156C132.781 19.4844 132.879 19.8935 133.092 20.2429C133.314 20.5923 133.616 20.8949 134 21.1506C134.384 21.3977 134.827 21.6151 135.33 21.8026C135.832 21.9815 136.369 22.1349 136.94 22.2628L139.293 22.8253C140.435 23.081 141.483 23.4219 142.438 23.848C143.392 24.2741 144.219 24.7983 144.918 25.4205C145.616 26.0426 146.158 26.7756 146.541 27.6193C146.933 28.4631 147.134 29.4304 147.142 30.5213C147.134 32.1236 146.724 33.5128 145.915 34.6889C145.114 35.8565 143.955 36.7642 142.438 37.4119C140.929 38.0511 139.109 38.3707 136.979 38.3707C134.865 38.3707 133.024 38.0469 131.456 37.3991C129.896 36.7514 128.678 35.7926 127.8 34.5227C126.93 33.2443 126.474 31.6634 126.432 29.7798H131.788C131.848 30.6577 132.099 31.3906 132.543 31.9787C132.994 32.5582 133.595 32.9972 134.345 33.2955C135.104 33.5852 135.96 33.7301 136.915 33.7301C137.852 33.7301 138.666 33.5937 139.357 33.321C140.055 33.0483 140.597 32.669 140.98 32.1832C141.364 31.6974 141.555 31.1392 141.555 30.5085C141.555 29.9205 141.381 29.4261 141.031 29.0256C140.69 28.625 140.188 28.2841 139.523 28.0028C138.866 27.7216 138.061 27.4659 137.107 27.2358L134.256 26.5199C132.048 25.983 130.305 25.1435 129.027 24.0014C127.749 22.8594 127.114 21.321 127.122 19.3864C127.114 17.8011 127.536 16.4162 128.388 15.2315C129.249 14.0469 130.429 13.1222 131.929 12.4574C133.429 11.7926 135.134 11.4602 137.043 11.4602C138.986 11.4602 140.682 11.7926 142.131 12.4574C143.588 13.1222 144.722 14.0469 145.531 15.2315C146.341 16.4162 146.759 17.7884 146.784 19.348H141.479ZM150.263 45.3636V18.3636H155.632V21.6619H155.875C156.114 21.1335 156.459 20.5966 156.911 20.0511C157.371 19.4972 157.968 19.0369 158.701 18.6705C159.442 18.2955 160.363 18.108 161.462 18.108C162.894 18.108 164.215 18.483 165.425 19.233C166.635 19.9744 167.603 21.0952 168.327 22.5952C169.051 24.0866 169.414 25.9574 169.414 28.2074C169.414 30.3977 169.06 32.2472 168.353 33.7557C167.654 35.2557 166.699 36.3935 165.489 37.169C164.287 37.9361 162.941 38.3196 161.449 38.3196C160.392 38.3196 159.493 38.1449 158.752 37.7955C158.019 37.446 157.418 37.0071 156.949 36.4787C156.48 35.9418 156.123 35.4006 155.875 34.8551H155.709V45.3636H150.263ZM155.594 28.1818C155.594 29.3494 155.756 30.3679 156.08 31.2372C156.404 32.1065 156.873 32.7841 157.486 33.2699C158.1 33.7472 158.846 33.9858 159.723 33.9858C160.61 33.9858 161.36 33.7429 161.973 33.2571C162.587 32.7628 163.051 32.081 163.367 31.2116C163.691 30.3338 163.853 29.3239 163.853 28.1818C163.853 27.0483 163.695 26.0511 163.38 25.1903C163.064 24.3295 162.6 23.6562 161.986 23.1705C161.373 22.6847 160.618 22.4418 159.723 22.4418C158.837 22.4418 158.087 22.6761 157.473 23.1449C156.868 23.6136 156.404 24.2784 156.08 25.1392C155.756 26 155.594 27.0142 155.594 28.1818ZM181.493 38.3835C179.473 38.3835 177.735 37.9744 176.277 37.1562C174.828 36.3295 173.712 35.1619 172.928 33.6534C172.144 32.1364 171.752 30.3423 171.752 28.2713C171.752 26.2514 172.144 24.4787 172.928 22.9531C173.712 21.4276 174.816 20.2386 176.239 19.3864C177.671 18.5341 179.35 18.108 181.276 18.108C182.571 18.108 183.777 18.3168 184.894 18.7344C186.019 19.1435 186.999 19.7614 187.834 20.5881C188.678 21.4148 189.334 22.4545 189.803 23.7074C190.272 24.9517 190.506 26.4091 190.506 28.0795V29.5753H173.925V26.2003H185.38C185.38 25.4162 185.209 24.7216 184.868 24.1165C184.527 23.5114 184.054 23.0384 183.449 22.6974C182.853 22.348 182.158 22.1733 181.365 22.1733C180.539 22.1733 179.806 22.3651 179.167 22.7486C178.536 23.1236 178.042 23.6307 177.684 24.2699C177.326 24.9006 177.142 25.6037 177.134 26.3793V29.5881C177.134 30.5597 177.313 31.3991 177.671 32.1065C178.037 32.8139 178.553 33.3594 179.218 33.7429C179.882 34.1264 180.671 34.3182 181.583 34.3182C182.188 34.3182 182.742 34.233 183.245 34.0625C183.748 33.892 184.178 33.6364 184.536 33.2955C184.894 32.9545 185.167 32.5369 185.354 32.0426L190.391 32.375C190.135 33.5852 189.611 34.642 188.819 35.5455C188.034 36.4403 187.02 37.1392 185.776 37.642C184.54 38.1364 183.113 38.3835 181.493 38.3835ZM199.159 38.3707C197.907 38.3707 196.79 38.1534 195.81 37.7188C194.83 37.2756 194.054 36.6236 193.483 35.7628C192.921 34.8935 192.64 33.8111 192.64 32.5156C192.64 31.4247 192.84 30.5085 193.24 29.767C193.641 29.0256 194.186 28.429 194.877 27.9773C195.567 27.5256 196.351 27.1847 197.229 26.9545C198.115 26.7244 199.044 26.5625 200.016 26.4688C201.158 26.3494 202.078 26.2386 202.777 26.1364C203.476 26.0256 203.983 25.8636 204.299 25.6506C204.614 25.4375 204.772 25.1222 204.772 24.7045V24.6278C204.772 23.8182 204.516 23.1918 204.005 22.7486C203.502 22.3054 202.786 22.0838 201.857 22.0838C200.877 22.0838 200.097 22.3011 199.517 22.7358C198.938 23.1619 198.554 23.6989 198.367 24.3466L193.33 23.9375C193.586 22.7443 194.088 21.7131 194.838 20.8438C195.588 19.9659 196.556 19.2926 197.74 18.8239C198.934 18.3466 200.314 18.108 201.882 18.108C202.973 18.108 204.017 18.2358 205.015 18.4915C206.02 18.7472 206.911 19.1435 207.686 19.6804C208.471 20.2173 209.088 20.9077 209.54 21.7514C209.992 22.5866 210.218 23.5881 210.218 24.7557V38H205.053V35.277H204.9C204.584 35.8906 204.162 36.4318 203.634 36.9006C203.105 37.3608 202.471 37.723 201.729 37.9872C200.988 38.2429 200.131 38.3707 199.159 38.3707ZM200.719 34.6122C201.52 34.6122 202.228 34.4545 202.841 34.1392C203.455 33.8153 203.936 33.3807 204.286 32.8352C204.635 32.2898 204.81 31.6719 204.81 30.9815V28.8977C204.64 29.0085 204.405 29.1108 204.107 29.2045C203.817 29.2898 203.489 29.3707 203.123 29.4474C202.756 29.5156 202.39 29.5795 202.023 29.6392C201.657 29.6903 201.324 29.7372 201.026 29.7798C200.387 29.8736 199.828 30.0227 199.351 30.2273C198.874 30.4318 198.503 30.7088 198.239 31.0582C197.975 31.3991 197.843 31.8253 197.843 32.3366C197.843 33.0781 198.111 33.6449 198.648 34.0369C199.194 34.4205 199.884 34.6122 200.719 34.6122ZM218.877 32.3494L218.89 25.8168H219.683L225.973 18.3636H232.224L223.774 28.233H222.483L218.877 32.3494ZM213.943 38V11.8182H219.389V38H213.943ZM226.216 38L220.437 29.4474L224.068 25.5994L232.595 38H226.216Z" fill="currentColor"/>
<path d="M249.479 19.348C249.376 18.3168 248.938 17.5156 248.162 16.9446C247.386 16.3736 246.334 16.0881 245.004 16.0881C244.101 16.0881 243.338 16.2159 242.716 16.4716C242.094 16.7188 241.616 17.0639 241.284 17.5071C240.96 17.9503 240.798 18.4531 240.798 19.0156C240.781 19.4844 240.879 19.8935 241.092 20.2429C241.314 20.5923 241.616 20.8949 242 21.1506C242.384 21.3977 242.827 21.6151 243.33 21.8026C243.832 21.9815 244.369 22.1349 244.94 22.2628L247.293 22.8253C248.435 23.081 249.483 23.4219 250.438 23.848C251.392 24.2741 252.219 24.7983 252.918 25.4205C253.616 26.0426 254.158 26.7756 254.541 27.6193C254.933 28.4631 255.134 29.4304 255.142 30.5213C255.134 32.1236 254.724 33.5128 253.915 34.6889C253.114 35.8565 251.955 36.7642 250.438 37.4119C248.929 38.0511 247.109 38.3707 244.979 38.3707C242.865 38.3707 241.024 38.0469 239.456 37.3991C237.896 36.7514 236.678 35.7926 235.8 34.5227C234.93 33.2443 234.474 31.6634 234.432 29.7798H239.788C239.848 30.6577 240.099 31.3906 240.543 31.9787C240.994 32.5582 241.595 32.9972 242.345 33.2955C243.104 33.5852 243.96 33.7301 244.915 33.7301C245.852 33.7301 246.666 33.5937 247.357 33.321C248.055 33.0483 248.597 32.669 248.98 32.1832C249.364 31.6974 249.555 31.1392 249.555 30.5085C249.555 29.9205 249.381 29.4261 249.031 29.0256C248.69 28.625 248.188 28.2841 247.523 28.0028C246.866 27.7216 246.061 27.4659 245.107 27.2358L242.256 26.5199C240.048 25.983 238.305 25.1435 237.027 24.0014C235.749 22.8594 235.114 21.321 235.122 19.3864C235.114 17.8011 235.536 16.4162 236.388 15.2315C237.249 14.0469 238.429 13.1222 239.929 12.4574C241.429 11.7926 243.134 11.4602 245.043 11.4602C246.986 11.4602 248.682 11.7926 250.131 12.4574C251.588 13.1222 252.722 14.0469 253.531 15.2315C254.341 16.4162 254.759 17.7884 254.784 19.348H249.479ZM258.263 45.3636V18.3636H263.632V21.6619H263.875C264.114 21.1335 264.459 20.5966 264.911 20.0511C265.371 19.4972 265.968 19.0369 266.701 18.6705C267.442 18.2955 268.363 18.108 269.462 18.108C270.894 18.108 272.215 18.483 273.425 19.233C274.635 19.9744 275.603 21.0952 276.327 22.5952C277.051 24.0866 277.414 25.9574 277.414 28.2074C277.414 30.3977 277.06 32.2472 276.353 33.7557C275.654 35.2557 274.699 36.3935 273.489 37.169C272.287 37.9361 270.941 38.3196 269.449 38.3196C268.392 38.3196 267.493 38.1449 266.752 37.7955C266.019 37.446 265.418 37.0071 264.949 36.4787C264.48 35.9418 264.123 35.4006 263.875 34.8551H263.709V45.3636H258.263ZM263.594 28.1818C263.594 29.3494 263.756 30.3679 264.08 31.2372C264.404 32.1065 264.873 32.7841 265.486 33.2699C266.1 33.7472 266.846 33.9858 267.723 33.9858C268.61 33.9858 269.36 33.7429 269.973 33.2571C270.587 32.7628 271.051 32.081 271.367 31.2116C271.691 30.3338 271.853 29.3239 271.853 28.1818C271.853 27.0483 271.695 26.0511 271.38 25.1903C271.064 24.3295 270.6 23.6562 269.986 23.1705C269.373 22.6847 268.618 22.4418 267.723 22.4418C266.837 22.4418 266.087 22.6761 265.473 23.1449C264.868 23.6136 264.404 24.2784 264.08 25.1392C263.756 26 263.594 27.0142 263.594 28.1818ZM289.493 38.3835C287.473 38.3835 285.735 37.9744 284.277 37.1562C282.828 36.3295 281.712 35.1619 280.928 33.6534C280.144 32.1364 279.752 30.3423 279.752 28.2713C279.752 26.2514 280.144 24.4787 280.928 22.9531C281.712 21.4276 282.816 20.2386 284.239 19.3864C285.671 18.5341 287.35 18.108 289.276 18.108C290.571 18.108 291.777 18.3168 292.894 18.7344C294.019 19.1435 294.999 19.7614 295.834 20.5881C296.678 21.4148 297.334 22.4545 297.803 23.7074C298.272 24.9517 298.506 26.4091 298.506 28.0795V29.5753H281.925V26.2003H293.38C293.38 25.4162 293.209 24.7216 292.868 24.1165C292.527 23.5114 292.054 23.0384 291.449 22.6974C290.853 22.348 290.158 22.1733 289.365 22.1733C288.539 22.1733 287.806 22.3651 287.167 22.7486C286.536 23.1236 286.042 23.6307 285.684 24.2699C285.326 24.9006 285.142 25.6037 285.134 26.3793V29.5881C285.134 30.5597 285.313 31.3991 285.671 32.1065C286.037 32.8139 286.553 33.3594 287.218 33.7429C287.882 34.1264 288.671 34.3182 289.583 34.3182C290.188 34.3182 290.742 34.233 291.245 34.0625C291.748 33.892 292.178 33.6364 292.536 33.2955C292.894 32.9545 293.167 32.5369 293.354 32.0426L298.391 32.375C298.135 33.5852 297.611 34.642 296.819 35.5455C296.034 36.4403 295.02 37.1392 293.776 37.642C292.54 38.1364 291.113 38.3835 289.493 38.3835ZM310.432 38.3835C308.421 38.3835 306.691 37.9574 305.242 37.1051C303.801 36.2443 302.694 35.0511 301.918 33.5256C301.151 32 300.767 30.2443 300.767 28.2585C300.767 26.2472 301.155 24.483 301.931 22.9659C302.715 21.4403 303.827 20.2514 305.267 19.3991C306.708 18.5384 308.421 18.108 310.407 18.108C312.12 18.108 313.62 18.419 314.907 19.0412C316.194 19.6634 317.212 20.5369 317.962 21.6619C318.712 22.7869 319.125 24.108 319.202 25.625H314.063C313.918 24.6449 313.534 23.8565 312.912 23.2599C312.299 22.6548 311.493 22.3523 310.496 22.3523C309.652 22.3523 308.915 22.5824 308.284 23.0426C307.662 23.4943 307.176 24.1548 306.827 25.0241C306.478 25.8935 306.303 26.946 306.303 28.1818C306.303 29.4347 306.473 30.5 306.814 31.3778C307.164 32.2557 307.654 32.9247 308.284 33.3849C308.915 33.8452 309.652 34.0753 310.496 34.0753C311.118 34.0753 311.676 33.9474 312.171 33.6918C312.674 33.4361 313.087 33.0653 313.411 32.5795C313.743 32.0852 313.961 31.4929 314.063 30.8026H319.202C319.117 32.3026 318.708 33.6236 317.975 34.7656C317.25 35.8991 316.249 36.7855 314.971 37.4247C313.692 38.0639 312.179 38.3835 310.432 38.3835Z" fill="#2E7D32"/>
<circle cx="327.5" cy="38.5" r="4.5" fill="#388E3C"/>
<path d="M126.578 56L128.805 62.5156H128.895L131.121 56H132.426L129.547 64H128.152L125.273 56H126.578ZM135.581 64V56H140.597V57.0391H136.788V59.4766H140.335V60.5117H136.788V62.9609H140.644V64H135.581ZM144.209 64V56H147.061C147.68 56 148.195 56.1068 148.604 56.3203C149.015 56.5339 149.322 56.8294 149.525 57.207C149.729 57.582 149.83 58.0156 149.83 58.5078C149.83 58.9974 149.727 59.4284 149.521 59.8008C149.318 60.1706 149.011 60.4583 148.6 60.6641C148.191 60.8698 147.676 60.9727 147.057 60.9727H144.896V59.9336H146.947C147.338 59.9336 147.656 59.8776 147.9 59.7656C148.148 59.6536 148.329 59.4909 148.443 59.2773C148.558 59.0638 148.615 58.8073 148.615 58.5078C148.615 58.2057 148.557 57.944 148.439 57.7227C148.325 57.5013 148.144 57.332 147.896 57.2148C147.652 57.0951 147.33 57.0352 146.932 57.0352H145.416V64H144.209ZM148.158 60.3906L150.135 64H148.76L146.822 60.3906H148.158ZM154.506 56V64H153.299V56H154.506ZM158.264 64V56H163.225V57.0391H159.471V59.4766H162.869V60.5117H159.471V64H158.264ZM167.916 56V64H166.709V56H167.916ZM171.674 64V56H176.689V57.0391H172.881V59.4766H176.428V60.5117H172.881V62.9609H176.736V64H171.674ZM182.892 64H180.302V56H182.974C183.757 56 184.431 56.1602 184.993 56.4805C185.556 56.7982 185.987 57.2552 186.286 57.8516C186.588 58.4453 186.739 59.1576 186.739 59.9883C186.739 60.8216 186.587 61.5378 186.282 62.1367C185.98 62.7357 185.543 63.1966 184.97 63.5195C184.397 63.8398 183.704 64 182.892 64ZM181.509 62.9453H182.825C183.435 62.9453 183.941 62.8307 184.345 62.6016C184.748 62.3698 185.05 62.0352 185.251 61.5977C185.451 61.1576 185.552 60.6211 185.552 59.9883C185.552 59.3607 185.451 58.8281 185.251 58.3906C185.053 57.9531 184.757 57.6211 184.364 57.3945C183.971 57.168 183.483 57.0547 182.899 57.0547H181.509V62.9453ZM201.796 58.6016H200.577C200.53 58.3411 200.443 58.112 200.315 57.9141C200.188 57.7161 200.032 57.5482 199.847 57.4102C199.662 57.2721 199.455 57.168 199.226 57.0977C198.999 57.0273 198.758 56.9922 198.503 56.9922C198.042 56.9922 197.629 57.1081 197.265 57.3398C196.903 57.5716 196.616 57.9115 196.405 58.3594C196.197 58.8073 196.093 59.3542 196.093 60C196.093 60.651 196.197 61.2005 196.405 61.6484C196.616 62.0964 196.904 62.4349 197.269 62.6641C197.633 62.8932 198.043 63.0078 198.499 63.0078C198.752 63.0078 198.991 62.974 199.218 62.9062C199.447 62.8359 199.654 62.7331 199.839 62.5977C200.024 62.4622 200.18 62.2969 200.308 62.1016C200.438 61.9036 200.528 61.6771 200.577 61.4219L201.796 61.4258C201.731 61.819 201.604 62.181 201.417 62.5117C201.232 62.8398 200.994 63.1237 200.702 63.3633C200.413 63.6003 200.082 63.7839 199.71 63.9141C199.338 64.0443 198.931 64.1094 198.491 64.1094C197.799 64.1094 197.181 63.9453 196.64 63.6172C196.098 63.2865 195.671 62.8138 195.358 62.1992C195.049 61.5846 194.894 60.8516 194.894 60C194.894 59.1458 195.05 58.4128 195.362 57.8008C195.675 57.1862 196.102 56.7148 196.644 56.3867C197.185 56.056 197.801 55.8906 198.491 55.8906C198.916 55.8906 199.312 55.9518 199.679 56.0742C200.049 56.194 200.381 56.3711 200.675 56.6055C200.969 56.8372 201.213 57.1211 201.405 57.457C201.598 57.7904 201.728 58.1719 201.796 58.6016ZM212.189 60C212.189 60.8542 212.033 61.5885 211.721 62.2031C211.408 62.8151 210.98 63.2865 210.436 63.6172C209.894 63.9453 209.278 64.1094 208.588 64.1094C207.895 64.1094 207.277 63.9453 206.732 63.6172C206.191 63.2865 205.764 62.8138 205.451 62.1992C205.139 61.5846 204.982 60.8516 204.982 60C204.982 59.1458 205.139 58.4128 205.451 57.8008C205.764 57.1862 206.191 56.7148 206.732 56.3867C207.277 56.056 207.895 55.8906 208.588 55.8906C209.278 55.8906 209.894 56.056 210.436 56.3867C210.98 56.7148 211.408 57.1862 211.721 57.8008C212.033 58.4128 212.189 59.1458 212.189 60ZM210.994 60C210.994 59.349 210.889 58.8008 210.678 58.3555C210.469 57.9076 210.183 57.569 209.818 57.3398C209.456 57.1081 209.046 56.9922 208.588 56.9922C208.127 56.9922 207.715 57.1081 207.354 57.3398C206.992 57.569 206.705 57.9076 206.494 58.3555C206.286 58.8008 206.182 59.349 206.182 60C206.182 60.651 206.286 61.2005 206.494 61.6484C206.705 62.0937 206.992 62.4323 207.354 62.6641C207.715 62.8932 208.127 63.0078 208.588 63.0078C209.046 63.0078 209.456 62.8932 209.818 62.6641C210.183 62.4323 210.469 62.0937 210.678 61.6484C210.889 61.2005 210.994 60.651 210.994 60ZM215.694 56H217.159L219.706 62.2187H219.8L222.347 56H223.812V64H222.663V58.2109H222.589L220.229 63.9883H219.276L216.917 58.207H216.843V64H215.694V56ZM227.566 56H229.031L231.578 62.2187H231.672L234.219 56H235.684V64H234.535V58.2109H234.461L232.102 63.9883H231.148L228.789 58.207H228.715V64H227.566V56ZM244.583 56H245.794V61.2617C245.794 61.8216 245.662 62.3177 245.399 62.75C245.136 63.1797 244.767 63.5182 244.29 63.7656C243.813 64.0104 243.255 64.1328 242.614 64.1328C241.976 64.1328 241.419 64.0104 240.942 63.7656C240.466 63.5182 240.096 63.1797 239.833 62.75C239.57 62.3177 239.438 61.8216 239.438 61.2617V56H240.646V61.1641C240.646 61.526 240.725 61.8477 240.884 62.1289C241.045 62.4102 241.273 62.6315 241.567 62.793C241.862 62.9518 242.211 63.0312 242.614 63.0312C243.021 63.0312 243.371 62.9518 243.665 62.793C243.962 62.6315 244.188 62.4102 244.345 62.1289C244.504 61.8477 244.583 61.526 244.583 61.1641V56ZM256.006 56V64H254.896L250.83 58.1328H250.756V64H249.549V56H250.666L254.736 61.875H254.811V56H256.006ZM260.974 56V64H259.767V56H260.974ZM271.376 58.6016H270.157C270.11 58.3411 270.023 58.112 269.896 57.9141C269.768 57.7161 269.612 57.5482 269.427 57.4102C269.242 57.2721 269.035 57.168 268.806 57.0977C268.579 57.0273 268.338 56.9922 268.083 56.9922C267.622 56.9922 267.209 57.1081 266.845 57.3398C266.483 57.5716 266.196 57.9115 265.985 58.3594C265.777 58.8073 265.673 59.3542 265.673 60C265.673 60.651 265.777 61.2005 265.985 61.6484C266.196 62.0964 266.484 62.4349 266.849 62.6641C267.213 62.8932 267.623 63.0078 268.079 63.0078C268.332 63.0078 268.571 62.974 268.798 62.9062C269.027 62.8359 269.234 62.7331 269.419 62.5977C269.604 62.4622 269.76 62.2969 269.888 62.1016C270.018 61.9036 270.108 61.6771 270.157 61.4219L271.376 61.4258C271.311 61.819 271.185 62.181 270.997 62.5117C270.812 62.8398 270.574 63.1237 270.282 63.3633C269.993 63.6003 269.662 63.7839 269.29 63.9141C268.918 64.0443 268.511 64.1094 268.071 64.1094C267.379 64.1094 266.761 63.9453 266.22 63.6172C265.678 63.2865 265.251 62.8138 264.938 62.1992C264.629 61.5846 264.474 60.8516 264.474 60C264.474 59.1458 264.63 58.4128 264.942 57.8008C265.255 57.1862 265.682 56.7148 266.224 56.3867C266.765 56.056 267.381 55.8906 268.071 55.8906C268.496 55.8906 268.892 55.9518 269.259 56.0742C269.629 56.194 269.961 56.3711 270.255 56.6055C270.549 56.8372 270.793 57.1211 270.985 57.457C271.178 57.7904 271.308 58.1719 271.376 58.6016ZM275.442 64H274.161L277.04 56H278.435L281.313 64H280.032L277.771 57.4531H277.708L275.442 64ZM275.657 60.8672H279.813V61.8828H275.657V60.8672ZM283.129 57.0391V56H289.32V57.0391H286.824V64H285.621V57.0391H283.129ZM293.896 56V64H292.688V56H293.896ZM304.603 60C304.603 60.8542 304.446 61.5885 304.134 62.2031C303.821 62.8151 303.393 63.2865 302.849 63.6172C302.307 63.9453 301.691 64.1094 301.001 64.1094C300.308 64.1094 299.69 63.9453 299.146 63.6172C298.604 63.2865 298.177 62.8138 297.864 62.1992C297.552 61.5846 297.396 60.8516 297.396 60C297.396 59.1458 297.552 58.4128 297.864 57.8008C298.177 57.1862 298.604 56.7148 299.146 56.3867C299.69 56.056 300.308 55.8906 301.001 55.8906C301.691 55.8906 302.307 56.056 302.849 56.3867C303.393 56.7148 303.821 57.1862 304.134 57.8008C304.446 58.4128 304.603 59.1458 304.603 60ZM303.407 60C303.407 59.349 303.302 58.8008 303.091 58.3555C302.882 57.9076 302.596 57.569 302.231 57.3398C301.869 57.1081 301.459 56.9922 301.001 56.9922C300.54 56.9922 300.129 57.1081 299.767 57.3398C299.405 57.569 299.118 57.9076 298.907 58.3555C298.699 58.8008 298.595 59.349 298.595 60C298.595 60.651 298.699 61.2005 298.907 61.6484C299.118 62.0937 299.405 62.4323 299.767 62.6641C300.129 62.8932 300.54 63.0078 301.001 63.0078C301.459 63.0078 301.869 62.8932 302.231 62.6641C302.596 62.4323 302.882 62.0937 303.091 61.6484C303.302 61.2005 303.407 60.651 303.407 60ZM314.564 56V64H313.455L309.389 58.1328H309.314V64H308.107V56H309.225L313.295 61.875H313.369V56H314.564ZM323.236 64V56H326.088C326.71 56 327.226 56.1133 327.635 56.3398C328.044 56.5664 328.35 56.8763 328.553 57.2695C328.756 57.6602 328.857 58.1003 328.857 58.5898C328.857 59.082 328.755 59.5247 328.549 59.918C328.346 60.3086 328.038 60.6185 327.627 60.8477C327.218 61.0742 326.704 61.1875 326.084 61.1875H324.123V60.1641H325.975C326.368 60.1641 326.687 60.0964 326.932 59.9609C327.176 59.8229 327.356 59.6354 327.471 59.3984C327.585 59.1615 327.643 58.8919 327.643 58.5898C327.643 58.2878 327.585 58.0195 327.471 57.7852C327.356 57.5508 327.175 57.3672 326.928 57.2344C326.683 57.1016 326.36 57.0352 325.959 57.0352H324.443V64H323.236ZM332.272 64V56H333.479V62.9609H337.104V64H332.272ZM341.565 64H340.284L343.163 56H344.558L347.437 64H346.155L343.894 57.4531H343.831L341.565 64ZM341.78 60.8672H345.937V61.8828H341.78V60.8672ZM349.252 57.0391V56H355.443V57.0391H352.947V64H351.744V57.0391H349.252ZM358.812 64V56H363.772V57.0391H360.019V59.4766H363.417V60.5117H360.019V64H358.812ZM374.206 60C374.206 60.8542 374.05 61.5885 373.737 62.2031C373.425 62.8151 372.996 63.2865 372.452 63.6172C371.91 63.9453 371.295 64.1094 370.604 64.1094C369.912 64.1094 369.293 63.9453 368.749 63.6172C368.207 63.2865 367.78 62.8138 367.468 62.1992C367.155 61.5846 366.999 60.8516 366.999 60C366.999 59.1458 367.155 58.4128 367.468 57.8008C367.78 57.1862 368.207 56.7148 368.749 56.3867C369.293 56.056 369.912 55.8906 370.604 55.8906C371.295 55.8906 371.91 56.056 372.452 56.3867C372.996 56.7148 373.425 57.1862 373.737 57.8008C374.05 58.4128 374.206 59.1458 374.206 60ZM373.011 60C373.011 59.349 372.905 58.8008 372.694 58.3555C372.486 57.9076 372.2 57.569 371.835 57.3398C371.473 57.1081 371.063 56.9922 370.604 56.9922C370.144 56.9922 369.732 57.1081 369.37 57.3398C369.008 57.569 368.722 57.9076 368.511 58.3555C368.302 58.8008 368.198 59.349 368.198 60C368.198 60.651 368.302 61.2005 368.511 61.6484C368.722 62.0937 369.008 62.4323 369.37 62.6641C369.732 62.8932 370.144 63.0078 370.604 63.0078C371.063 63.0078 371.473 62.8932 371.835 62.6641C372.2 62.4323 372.486 62.0937 372.694 61.6484C372.905 61.2005 373.011 60.651 373.011 60ZM377.711 64V56H380.563C381.182 56 381.697 56.1068 382.105 56.3203C382.517 56.5339 382.824 56.8294 383.027 57.207C383.23 57.582 383.332 58.0156 383.332 58.5078C383.332 58.9974 383.229 59.4284 383.023 59.8008C382.82 60.1706 382.513 60.4583 382.102 60.6641C381.693 60.8698 381.178 60.9727 380.559 60.9727H378.398V59.9336H380.449C380.84 59.9336 381.158 59.8776 381.402 59.7656C381.65 59.6536 381.831 59.4909 381.945 59.2773C382.06 59.0638 382.117 58.8073 382.117 58.5078C382.117 58.2057 382.059 57.944 381.941 57.7227C381.827 57.5013 381.646 57.332 381.398 57.2148C381.154 57.0951 380.832 57.0352 380.434 57.0352H378.918V64H377.711ZM381.66 60.3906L383.637 64H382.262L380.324 60.3906H381.66ZM386.801 56H388.266L390.813 62.2187H390.906L393.453 56H394.918V64H393.77V58.2109H393.695L391.336 63.9883H390.383L388.023 58.207H387.949V64H386.801V56Z" fill="#9E9E9E"/>
<defs>
<filter id="filter0_d_116_57" x="0" y="0" width="80" height="80" filterUnits="userSpaceOnUse" color-interpolation-filters="sRGB">
<feFlood flood-opacity="0" result="BackgroundImageFix"/>
<feColorMatrix in="SourceAlpha" type="matrix" values="0 0 0 0 0 0 0 0 0 0 0 0 0 0 0 0 0 0 127 0" result="hardAlpha"/>
<feOffset dy="1"/>
<feGaussianBlur stdDeviation="2"/>
<feColorMatrix type="matrix" values="0 0 0 0 0.180392 0 0 0 0 0.490196 0 0 0 0 0.196078 0 0 0 0.133333 0"/>
<feBlend mode="normal" in2="BackgroundImageFix" result="effect1_dropShadow_116_57"/>
<feBlend mode="normal" in="SourceGraphic" in2="effect1_dropShadow_116_57" result="shape"/>
</filter>
</defs>
</svg>
