<svg width="475" height="80" viewBox="0 0 475 80" fill="none" xmlns="http://www.w3.org/2000/svg">
<g filter="url(#filter0_d_116_57)">
<rect x="4" y="3" width="72" height="72" rx="16" fill="#2E7D32"/>
<circle cx="40" cy="39" r="14" fill="white"/>
</g>
<path d="M125.211 24.8047C125.023 22.9141 124.219 21.4453 122.797 20.3984C121.375 19.3516 119.445 18.8281 117.008 18.8281C115.352 18.8281 113.953 19.0625 112.813 19.5312C111.672 19.9844 110.797 20.6172 110.188 21.4297C109.594 22.2422 109.297 23.1641 109.297 24.1953C109.266 25.0547 109.445 25.8047 109.836 26.4453C110.242 27.0859 110.797 27.6406 111.5 28.1094C112.203 28.5625 113.016 28.9609 113.937 29.3047C114.859 29.6328 115.844 29.9141 116.891 30.1484L121.203 31.1797C123.297 31.6484 125.219 32.2734 126.969 33.0547C128.719 33.8359 130.234 34.7969 131.516 35.9375C132.797 37.0781 133.789 38.4219 134.492 39.9687C135.211 41.5156 135.578 43.2891 135.594 45.2891C135.578 48.2266 134.828 50.7734 133.344 52.9297C131.875 55.0703 129.75 56.7344 126.969 57.9219C124.203 59.0937 120.867 59.6797 116.961 59.6797C113.086 59.6797 109.711 59.0859 106.836 57.8984C103.977 56.7109 101.742 54.9531 100.133 52.625C98.5391 50.2812 97.7031 47.3828 97.625 43.9297H107.445C107.555 45.5391 108.016 46.8828 108.828 47.9609C109.656 49.0234 110.758 49.8281 112.133 50.375C113.523 50.9062 115.094 51.1719 116.844 51.1719C118.562 51.1719 120.055 50.9219 121.32 50.4219C122.602 49.9219 123.594 49.2266 124.297 48.3359C125 47.4453 125.352 46.4219 125.352 45.2656C125.352 44.1875 125.031 43.2812 124.391 42.5469C123.766 41.8125 122.844 41.1875 121.625 40.6719C120.422 40.1562 118.945 39.6875 117.195 39.2656L111.969 37.9531C107.922 36.9687 104.727 35.4297 102.383 33.3359C100.039 31.2422 98.875 28.4219 98.8906 24.875C98.875 21.9687 99.6484 19.4297 101.211 17.2578C102.789 15.0859 104.953 13.3906 107.703 12.1719C110.453 10.9531 113.578 10.3437 117.078 10.3437C120.641 10.3437 123.75 10.9531 126.406 12.1719C129.078 13.3906 131.156 15.0859 132.641 17.2578C134.125 19.4297 134.891 21.9453 134.937 24.8047H125.211ZM141.732 72.5V23H151.576V29.0469H152.021C152.459 28.0781 153.092 27.0937 153.92 26.0937C154.764 25.0781 155.857 24.2344 157.201 23.5625C158.561 22.875 160.248 22.5313 162.264 22.5313C164.889 22.5313 167.311 23.2188 169.529 24.5938C171.748 25.9531 173.521 28.0078 174.85 30.7578C176.178 33.4922 176.842 36.9219 176.842 41.0469C176.842 45.0625 176.193 48.4531 174.896 51.2187C173.615 53.9687 171.865 56.0547 169.646 57.4766C167.443 58.8828 164.975 59.5859 162.24 59.5859C160.303 59.5859 158.654 59.2656 157.295 58.625C155.951 57.9844 154.85 57.1797 153.99 56.2109C153.131 55.2266 152.475 54.2344 152.021 53.2344H151.717V72.5H141.732ZM151.506 41C151.506 43.1406 151.803 45.0078 152.396 46.6016C152.99 48.1953 153.85 49.4375 154.975 50.3281C156.1 51.2031 157.467 51.6406 159.076 51.6406C160.701 51.6406 162.076 51.1953 163.201 50.3047C164.326 49.3984 165.178 48.1484 165.756 46.5547C166.35 44.9453 166.646 43.0937 166.646 41C166.646 38.9219 166.357 37.0937 165.779 35.5156C165.201 33.9375 164.35 32.7031 163.225 31.8125C162.1 30.9219 160.717 30.4766 159.076 30.4766C157.451 30.4766 156.076 30.9062 154.951 31.7656C153.842 32.625 152.99 33.8437 152.396 35.4219C151.803 37 151.506 38.8594 151.506 41ZM199.404 59.7031C195.701 59.7031 192.514 58.9531 189.842 57.4531C187.186 55.9375 185.139 53.7969 183.701 51.0312C182.264 48.25 181.545 44.9609 181.545 41.1641C181.545 37.4609 182.264 34.2109 183.701 31.4141C185.139 28.6172 187.162 26.4375 189.771 24.875C192.396 23.3125 195.475 22.5313 199.006 22.5313C201.381 22.5313 203.592 22.9141 205.639 23.6797C207.701 24.4297 209.498 25.5625 211.029 27.0781C212.576 28.5937 213.779 30.5 214.639 32.7969C215.498 35.0781 215.928 37.75 215.928 40.8125V43.5547H185.529V37.3672H206.529C206.529 35.9297 206.217 34.6562 205.592 33.5469C204.967 32.4375 204.1 31.5703 202.99 30.9453C201.896 30.3047 200.623 29.9844 199.17 29.9844C197.654 29.9844 196.311 30.3359 195.139 31.0391C193.982 31.7266 193.076 32.6562 192.42 33.8281C191.764 34.9844 191.428 36.2734 191.412 37.6953V43.5781C191.412 45.3594 191.74 46.8984 192.396 48.1953C193.068 49.4922 194.014 50.4922 195.232 51.1953C196.451 51.8984 197.896 52.25 199.568 52.25C200.678 52.25 201.693 52.0937 202.615 51.7812C203.537 51.4687 204.326 51 204.982 50.375C205.639 49.75 206.139 48.9844 206.482 48.0781L215.717 48.6875C215.248 50.9062 214.287 52.8437 212.834 54.5C211.396 56.1406 209.537 57.4219 207.256 58.3438C204.99 59.25 202.373 59.7031 199.404 59.7031ZM232.209 59.6797C229.912 59.6797 227.865 59.2813 226.068 58.4844C224.271 57.6719 222.85 56.4766 221.803 54.8984C220.771 53.3047 220.256 51.3203 220.256 48.9453C220.256 46.9453 220.623 45.2656 221.357 43.9062C222.092 42.5469 223.092 41.4531 224.357 40.625C225.623 39.7969 227.061 39.1719 228.67 38.75C230.295 38.3281 231.998 38.0312 233.779 37.8594C235.873 37.6406 237.561 37.4375 238.842 37.25C240.123 37.0469 241.053 36.75 241.631 36.3594C242.209 35.9687 242.498 35.3906 242.498 34.625V34.4844C242.498 33 242.029 31.8516 241.092 31.0391C240.17 30.2266 238.857 29.8203 237.154 29.8203C235.357 29.8203 233.928 30.2187 232.865 31.0156C231.803 31.7969 231.1 32.7812 230.756 33.9687L221.521 33.2188C221.99 31.0312 222.912 29.1406 224.287 27.5469C225.662 25.9375 227.436 24.7031 229.607 23.8437C231.795 22.9687 234.326 22.5313 237.201 22.5313C239.201 22.5313 241.115 22.7656 242.943 23.2344C244.787 23.7031 246.42 24.4297 247.842 25.4141C249.279 26.3984 250.412 27.6641 251.24 29.2109C252.068 30.7422 252.482 32.5781 252.482 34.7187V59H243.014V54.0078H242.732C242.154 55.1328 241.381 56.125 240.412 56.9844C239.443 57.8281 238.279 58.4922 236.92 58.9766C235.561 59.4453 233.99 59.6797 232.209 59.6797ZM235.068 52.7891C236.537 52.7891 237.834 52.5 238.959 51.9219C240.084 51.3281 240.967 50.5312 241.607 49.5313C242.248 48.5312 242.568 47.3984 242.568 46.1328V42.3125C242.256 42.5156 241.826 42.7031 241.279 42.875C240.748 43.0312 240.146 43.1797 239.475 43.3203C238.803 43.4453 238.131 43.5625 237.459 43.6719C236.787 43.7656 236.178 43.8516 235.631 43.9297C234.459 44.1016 233.436 44.375 232.561 44.75C231.686 45.125 231.006 45.6328 230.521 46.2734C230.037 46.8984 229.795 47.6797 229.795 48.6172C229.795 49.9766 230.287 51.0156 231.271 51.7344C232.271 52.4375 233.537 52.7891 235.068 52.7891ZM268.775 48.6406L268.799 36.6641H270.252L281.783 23H293.244L277.752 41.0938H275.385L268.775 48.6406ZM259.729 59V11H269.713V59H259.729ZM282.229 59L271.635 43.3203L278.291 36.2656L293.924 59H282.229Z" fill="currentColor"/>
<path d="M325.211 24.8047C325.023 22.9141 324.219 21.4453 322.797 20.3984C321.375 19.3516 319.445 18.8281 317.008 18.8281C315.352 18.8281 313.953 19.0625 312.813 19.5312C311.672 19.9844 310.797 20.6172 310.188 21.4297C309.594 22.2422 309.297 23.1641 309.297 24.1953C309.266 25.0547 309.445 25.8047 309.836 26.4453C310.242 27.0859 310.797 27.6406 311.5 28.1094C312.203 28.5625 313.016 28.9609 313.937 29.3047C314.859 29.6328 315.844 29.9141 316.891 30.1484L321.203 31.1797C323.297 31.6484 325.219 32.2734 326.969 33.0547C328.719 33.8359 330.234 34.7969 331.516 35.9375C332.797 37.0781 333.789 38.4219 334.492 39.9687C335.211 41.5156 335.578 43.2891 335.594 45.2891C335.578 48.2266 334.828 50.7734 333.344 52.9297C331.875 55.0703 329.75 56.7344 326.969 57.9219C324.203 59.0937 320.867 59.6797 316.961 59.6797C313.086 59.6797 309.711 59.0859 306.836 57.8984C303.977 56.7109 301.742 54.9531 300.133 52.625C298.539 50.2812 297.703 47.3828 297.625 43.9297H307.445C307.555 45.5391 308.016 46.8828 308.828 47.9609C309.656 49.0234 310.758 49.8281 312.133 50.375C313.523 50.9062 315.094 51.1719 316.844 51.1719C318.562 51.1719 320.055 50.9219 321.32 50.4219C322.602 49.9219 323.594 49.2266 324.297 48.3359C325 47.4453 325.352 46.4219 325.352 45.2656C325.352 44.1875 325.031 43.2812 324.391 42.5469C323.766 41.8125 322.844 41.1875 321.625 40.6719C320.422 40.1562 318.945 39.6875 317.195 39.2656L311.969 37.9531C307.922 36.9687 304.727 35.4297 302.383 33.3359C300.039 31.2422 298.875 28.4219 298.891 24.875C298.875 21.9687 299.648 19.4297 301.211 17.2578C302.789 15.0859 304.953 13.3906 307.703 12.1719C310.453 10.9531 313.578 10.3437 317.078 10.3437C320.641 10.3437 323.75 10.9531 326.406 12.1719C329.078 13.3906 331.156 15.0859 332.641 17.2578C334.125 19.4297 334.891 21.9453 334.937 24.8047H325.211ZM341.732 72.5V23H351.576V29.0469H352.021C352.459 28.0781 353.092 27.0937 353.92 26.0937C354.764 25.0781 355.857 24.2344 357.201 23.5625C358.561 22.875 360.248 22.5313 362.264 22.5313C364.889 22.5313 367.311 23.2188 369.529 24.5938C371.748 25.9531 373.521 28.0078 374.85 30.7578C376.178 33.4922 376.842 36.9219 376.842 41.0469C376.842 45.0625 376.193 48.4531 374.896 51.2187C373.615 53.9687 371.865 56.0547 369.646 57.4766C367.443 58.8828 364.975 59.5859 362.24 59.5859C360.303 59.5859 358.654 59.2656 357.295 58.625C355.951 57.9844 354.85 57.1797 353.99 56.2109C353.131 55.2266 352.475 54.2344 352.021 53.2344H351.717V72.5H341.732ZM351.506 41C351.506 43.1406 351.803 45.0078 352.396 46.6016C352.99 48.1953 353.85 49.4375 354.975 50.3281C356.1 51.2031 357.467 51.6406 359.076 51.6406C360.701 51.6406 362.076 51.1953 363.201 50.3047C364.326 49.3984 365.178 48.1484 365.756 46.5547C366.35 44.9453 366.646 43.0937 366.646 41C366.646 38.9219 366.357 37.0937 365.779 35.5156C365.201 33.9375 364.35 32.7031 363.225 31.8125C362.1 30.9219 360.717 30.4766 359.076 30.4766C357.451 30.4766 356.076 30.9062 354.951 31.7656C353.842 32.625 352.99 33.8437 352.396 35.4219C351.803 37 351.506 38.8594 351.506 41ZM399.404 59.7031C395.701 59.7031 392.514 58.9531 389.842 57.4531C387.186 55.9375 385.139 53.7969 383.701 51.0312C382.264 48.25 381.545 44.9609 381.545 41.1641C381.545 37.4609 382.264 34.2109 383.701 31.4141C385.139 28.6172 387.162 26.4375 389.771 24.875C392.396 23.3125 395.475 22.5313 399.006 22.5313C401.381 22.5313 403.592 22.9141 405.639 23.6797C407.701 24.4297 409.498 25.5625 411.029 27.0781C412.576 28.5937 413.779 30.5 414.639 32.7969C415.498 35.0781 415.928 37.75 415.928 40.8125V43.5547H385.529V37.3672H406.529C406.529 35.9297 406.217 34.6562 405.592 33.5469C404.967 32.4375 404.1 31.5703 402.99 30.9453C401.896 30.3047 400.623 29.9844 399.17 29.9844C397.654 29.9844 396.311 30.3359 395.139 31.0391C393.982 31.7266 393.076 32.6562 392.42 33.8281C391.764 34.9844 391.428 36.2734 391.412 37.6953V43.5781C391.412 45.3594 391.74 46.8984 392.396 48.1953C393.068 49.4922 394.014 50.4922 395.232 51.1953C396.451 51.8984 397.896 52.25 399.568 52.25C400.678 52.25 401.693 52.0937 402.615 51.7812C403.537 51.4687 404.326 51 404.982 50.375C405.639 49.75 406.139 48.9844 406.482 48.0781L415.717 48.6875C415.248 50.9062 414.287 52.8437 412.834 54.5C411.396 56.1406 409.537 57.4219 407.256 58.3438C404.99 59.25 402.373 59.7031 399.404 59.7031ZM438.209 59.7031C434.521 59.7031 431.35 58.9219 428.693 57.3594C426.053 55.7812 424.021 53.5937 422.6 50.7969C421.193 48 420.49 44.7812 420.49 41.1406C420.49 37.4531 421.201 34.2187 422.623 31.4375C424.061 28.6406 426.1 26.4609 428.74 24.8984C431.381 23.3203 434.521 22.5313 438.162 22.5313C441.303 22.5313 444.053 23.1016 446.412 24.2422C448.771 25.3828 450.639 26.9844 452.014 29.0469C453.389 31.1094 454.146 33.5312 454.287 36.3125H444.865C444.6 34.5156 443.896 33.0703 442.756 31.9766C441.631 30.8672 440.154 30.3125 438.326 30.3125C436.779 30.3125 435.428 30.7344 434.271 31.5781C433.131 32.4062 432.24 33.6172 431.6 35.2109C430.959 36.8047 430.639 38.7344 430.639 41C430.639 43.2969 430.951 45.25 431.576 46.8594C432.217 48.4687 433.115 49.6953 434.271 50.5391C435.428 51.3828 436.779 51.8047 438.326 51.8047C439.467 51.8047 440.49 51.5703 441.396 51.1016C442.318 50.6328 443.076 49.9531 443.67 49.0625C444.279 48.1562 444.678 47.0703 444.865 45.8047H454.287C454.131 48.5547 453.381 50.9766 452.037 53.0703C450.709 55.1484 448.873 56.7734 446.529 57.9453C444.186 59.1172 441.412 59.7031 438.209 59.7031Z" fill="#2E7D32"/>
<circle cx="466" cy="64" r="7" fill="#388E3C"/>
<defs>
<filter id="filter0_d_116_57" x="0" y="0" width="80" height="80" filterUnits="userSpaceOnUse" color-interpolation-filters="sRGB">
<feFlood flood-opacity="0" result="BackgroundImageFix"/>
<feColorMatrix in="SourceAlpha" type="matrix" values="0 0 0 0 0 0 0 0 0 0 0 0 0 0 0 0 0 0 127 0" result="hardAlpha"/>
<feOffset dy="1"/>
<feGaussianBlur stdDeviation="2"/>
<feColorMatrix type="matrix" values="0 0 0 0 0.180392 0 0 0 0 0.490196 0 0 0 0 0.196078 0 0 0 0.133333 0"/>
<feBlend mode="normal" in2="BackgroundImageFix" result="effect1_dropShadow_116_57"/>
<feBlend mode="normal" in="SourceGraphic" in2="effect1_dropShadow_116_57" result="shape"/>
</filter>
</defs>
</svg>
